<svg xmlns="http://www.w3.org/2000/svg" width="auto" height="300" viewBox="0 0 2310 620"><path fill="#662D91" d="M529.734 485.833c5.564 26.931-11.918 53.519-38.849 59.082l-332.968 68.794c-26.931 5.563-53.519-11.918-59.083-38.85l-91.05-440.692c-5.564-26.932 11.918-53.519 38.849-59.082l332.969-68.794c26.931-5.563 53.519 11.918 59.083 38.85l91.049 440.692z"/><g fill="#fff"><path d="M227.442 329.072l70.449-105.542c4.438-6.753 2.588-15.71-4.047-19.587-5.521-4.113-14.138-2.333-18.693 3.862l-116.647 171.513-46.829-226.658c-1.619-7.838-9.535-12.616-17.369-10.998-7.276 1.504-12.65 9.028-11.031 16.865l75.044 363.22c1.503 7.274 9.42 12.061 16.696 10.557 7.834-1.618 13.207-9.15 11.703-16.425l-20.235-97.943 45.755-65.301 176.005 130.361c3.605 3.334 7.112 3.784 11.028 2.975 3.357-.693 5.997-1.826 8.334-4.639 4.44-6.752 3.92-14.818-1.83-20.052l-178.333-132.208zM370.328 137.104l-.117-.013-42.356-26.968c-13.312-8.741-32.314-9.882-45.226-7.214l-132.465 27.368-.435.09-11.656 2.408c-7.594 1.569-12.333 8.701-10.765 16.292 1.456 7.049 8.635 11.719 16.228 10.149l11.656-2.408.435-.089 125.136-25.854 7.701 37.274c3.77 18.244 25.852 32.377 44.014 28.625l35.93-7.424 54.839 265.427.628 3.038 1.862 9.016c1.619 7.838 9.535 12.616 17.369 10.998 7.276-1.504 12.65-9.027 11.03-16.866l-1.862-9.015-.628-3.039-56.277-272.389c-2.657-12.859-11.731-30.655-25.041-39.406zm-43.516 32.241c-3.157.652-10.263-3.649-10.927-6.86l-6.525-31.59c1.062.203 1.58.507 1.975.762l44.591 30.134.04-.126c.453.297 1.018.426 1.778 1.29l-30.932 6.39z"/></g><g fill="#662D91"><path d="M632.759 125.498c0-7 5.5-12.5 12-12.5 7 0 12.5 5.5 12.5 12.5v202.5l211.5-211.5c5-4.5 13-4.5 17 0 5 4.5 5 12.5 0 17.5l-134 134 137 174c4 5.5 3 12.5-2 17.5-2.5 2-5 2.5-8 2.5-3.5 0-6.5-1-9-4.5l-135.5-172-77 77v87.5c0 6.5-5.5 12-12.5 12-6.5 0-12-5.5-12-12v-324.5zM1185.26 228.998v221c0 6.5-5.5 12-12 12s-12-5.5-12-12v-36.5c-21 29-54.5 48.5-92 48.5-64.5 0-116-55.5-116-122.5s51.5-122.5 116-122.5c37.5 0 71 19 92 48v-36c0-7 5.5-12 12-12s12 5 12 12zm-24 110.5c0-55-41.5-99-92-99-50 0-92 44-92 99s42 98.5 92 98.5c50.5 0 92-43.5 92-98.5zM1284.249 228.498c0-6.5 5.5-11.5 11.5-11.5 7 0 12.5 5 12.5 11.5v133c0 42 33.5 75.5 75 75.5 42 0 75.5-33.5 76-75.5v-133c0-2 .5-4.5 2-6l.5-1.5 1-.5c1-1.5 3-2.5 4.5-3h1l1.5-.5h3c2 .5 4 1.5 6 2.5 1 1 2.5 2.5 3 4 1 1.5 1.5 3.5 1.5 5v214c0 64-52 115-116.5 115-18 0-35-4.5-50.5-11.5-5.5-3.5-8-10.5-5-16 3-6 9.5-7.5 15.5-6 12 6 26 9.5 40 9.5 51 0 92-40.5 92.5-91v-16c-18.5 21-45.5 35-76 35-54.5-.5-99-45-99-100v-133zM1566.249 339.998c0-68 53-123 119-123 63 0 113 50 118 114v2c0 6.5-5.5 11-12 11h-201c2.5 53.5 44.5 94 95 94 32.5 0 62.5-17 79-44.5 3.5-6 11-7 16-4 5.5 4 7.5 11 4 17-21 33.5-57.5 55.5-99 55.5-66 0-119-55-119-122zm25.5-19.5h185.5c-8-46-47-79.5-92-79.5-46 0-84.5 33-93.5 79.5zM1877.748 229.498c0-7 5.5-12 12.5-12 6 0 11.5 5 11.5 12v54c1-2 2-4 3.5-6 18.5-29 51-60 98-60 6.5 0 12 5 12 12 0 6.5-5.5 12-12 12-32 0-54 18-71 40-16.5 22-26 47-29.5 57-1 2-1 3-1 4v107.5c0 7-5.5 12-11.5 12-7 0-12.5-5-12.5-12v-220.5zM2189.249 216.998c64.5 0 116 56 116 122.5s-51.5 122.5-116 122.5c-64 0-116-56-116-122.5s52-122.5 116-122.5zm0 221c50 0 92-44 92-98.5s-42-99-92-99-92 44.5-92 99 42 98.5 92 98.5z"/></g></svg>
